<mxfile host="app.diagrams.net" modified="2021-11-06T20:05:32.616Z" agent="5.0 (X11; Linux x86_64) AppleWebKit/537.36 (KHTML, like Gecko) Chrome/95.0.4638.69 Safari/537.36" etag="urC-cUG_SC3SEf5MVReF" version="15.5.8" type="github">
  <diagram id="C5RBs43oDa-KdzZeNtuy" name="Page-1">
    <mxGraphModel dx="1385" dy="1796" grid="1" gridSize="10" guides="1" tooltips="1" connect="1" arrows="1" fold="1" page="1" pageScale="1" pageWidth="827" pageHeight="1169" math="0" shadow="0">
      <root>
        <mxCell id="WIyWlLk6GJQsqaUBKTNV-0" />
        <mxCell id="WIyWlLk6GJQsqaUBKTNV-1" parent="WIyWlLk6GJQsqaUBKTNV-0" />
        <mxCell id="xGXZ_tOPPtuFmqoxac-9-1" value="Casillero_construible" style="swimlane;fontStyle=0;childLayout=stackLayout;horizontal=1;startSize=30;horizontalStack=0;resizeParent=1;resizeParentMax=0;resizeLast=0;collapsible=1;marginBottom=0;" parent="WIyWlLk6GJQsqaUBKTNV-1" vertex="1">
          <mxGeometry x="640" y="-280" width="420" height="510" as="geometry" />
        </mxCell>
        <mxCell id="xGXZ_tOPPtuFmqoxac-9-2" value="- ocupado: bool" style="text;strokeColor=none;fillColor=none;align=left;verticalAlign=middle;spacingLeft=4;spacingRight=4;overflow=hidden;points=[[0,0.5],[1,0.5]];portConstraint=eastwest;rotatable=0;" parent="xGXZ_tOPPtuFmqoxac-9-1" vertex="1">
          <mxGeometry y="30" width="420" height="30" as="geometry" />
        </mxCell>
        <mxCell id="xGXZ_tOPPtuFmqoxac-9-3" value="- edificio: *Edificio" style="text;strokeColor=none;fillColor=none;align=left;verticalAlign=middle;spacingLeft=4;spacingRight=4;overflow=hidden;points=[[0,0.5],[1,0.5]];portConstraint=eastwest;rotatable=0;" parent="xGXZ_tOPPtuFmqoxac-9-1" vertex="1">
          <mxGeometry y="60" width="420" height="30" as="geometry" />
        </mxCell>
        <mxCell id="xGXZ_tOPPtuFmqoxac-9-9" value="" style="endArrow=none;html=1;rounded=0;entryX=1.002;entryY=0;entryDx=0;entryDy=0;entryPerimeter=0;exitX=0.015;exitY=0;exitDx=0;exitDy=0;exitPerimeter=0;" parent="xGXZ_tOPPtuFmqoxac-9-1" source="xGXZ_tOPPtuFmqoxac-9-8" target="xGXZ_tOPPtuFmqoxac-9-8" edge="1">
          <mxGeometry width="50" height="50" relative="1" as="geometry">
            <mxPoint y="179" as="sourcePoint" />
            <mxPoint x="120" y="179" as="targetPoint" />
          </mxGeometry>
        </mxCell>
        <mxCell id="xGXZ_tOPPtuFmqoxac-9-8" value="+ Casillero_construible(tipo_terreno : char, pos_x : int, pos_y : int  )" style="text;strokeColor=none;fillColor=none;align=left;verticalAlign=middle;spacingLeft=4;spacingRight=4;overflow=hidden;points=[[0,0.5],[1,0.5]];portConstraint=eastwest;rotatable=0;" parent="xGXZ_tOPPtuFmqoxac-9-1" vertex="1">
          <mxGeometry y="90" width="420" height="30" as="geometry" />
        </mxCell>
        <mxCell id="Kev87G5NXUICbZVva8Oe-29" value="+ Casillero_construible()" style="text;strokeColor=none;fillColor=none;align=left;verticalAlign=middle;spacingLeft=4;spacingRight=4;overflow=hidden;points=[[0,0.5],[1,0.5]];portConstraint=eastwest;rotatable=0;" vertex="1" parent="xGXZ_tOPPtuFmqoxac-9-1">
          <mxGeometry y="120" width="420" height="30" as="geometry" />
        </mxCell>
        <mxCell id="xGXZ_tOPPtuFmqoxac-9-10" value="+ esta_ocupado() : bool" style="text;strokeColor=none;fillColor=none;align=left;verticalAlign=middle;spacingLeft=4;spacingRight=4;overflow=hidden;points=[[0,0.5],[1,0.5]];portConstraint=eastwest;rotatable=0;" parent="xGXZ_tOPPtuFmqoxac-9-1" vertex="1">
          <mxGeometry y="150" width="420" height="30" as="geometry" />
        </mxCell>
        <mxCell id="Kev87G5NXUICbZVva8Oe-30" value="+ mostrar()" style="text;strokeColor=none;fillColor=none;align=left;verticalAlign=middle;spacingLeft=4;spacingRight=4;overflow=hidden;points=[[0,0.5],[1,0.5]];portConstraint=eastwest;rotatable=0;" vertex="1" parent="xGXZ_tOPPtuFmqoxac-9-1">
          <mxGeometry y="180" width="420" height="30" as="geometry" />
        </mxCell>
        <mxCell id="Kev87G5NXUICbZVva8Oe-31" value="+ agregar_edificio(edificio : Edificio*)" style="text;strokeColor=none;fillColor=none;align=left;verticalAlign=middle;spacingLeft=4;spacingRight=4;overflow=hidden;points=[[0,0.5],[1,0.5]];portConstraint=eastwest;rotatable=0;" vertex="1" parent="xGXZ_tOPPtuFmqoxac-9-1">
          <mxGeometry y="210" width="420" height="30" as="geometry" />
        </mxCell>
        <mxCell id="Kev87G5NXUICbZVva8Oe-17" value="+ quitar_edificio()" style="text;strokeColor=none;fillColor=none;align=left;verticalAlign=middle;spacingLeft=4;spacingRight=4;overflow=hidden;points=[[0,0.5],[1,0.5]];portConstraint=eastwest;rotatable=0;" vertex="1" parent="xGXZ_tOPPtuFmqoxac-9-1">
          <mxGeometry y="240" width="420" height="30" as="geometry" />
        </mxCell>
        <mxCell id="xGXZ_tOPPtuFmqoxac-9-31" value="+ consultar_coordenada()" style="text;strokeColor=none;fillColor=none;align=left;verticalAlign=middle;spacingLeft=4;spacingRight=4;overflow=hidden;points=[[0,0.5],[1,0.5]];portConstraint=eastwest;rotatable=0;" parent="xGXZ_tOPPtuFmqoxac-9-1" vertex="1">
          <mxGeometry y="270" width="420" height="30" as="geometry" />
        </mxCell>
        <mxCell id="Kev87G5NXUICbZVva8Oe-32" value="+ devolver_edificio_nombre_edificio() : string" style="text;strokeColor=none;fillColor=none;align=left;verticalAlign=middle;spacingLeft=4;spacingRight=4;overflow=hidden;points=[[0,0.5],[1,0.5]];portConstraint=eastwest;rotatable=0;" vertex="1" parent="xGXZ_tOPPtuFmqoxac-9-1">
          <mxGeometry y="300" width="420" height="30" as="geometry" />
        </mxCell>
        <mxCell id="Kev87G5NXUICbZVva8Oe-33" value="+ devolver_edificio() : Edificio*" style="text;strokeColor=none;fillColor=none;align=left;verticalAlign=middle;spacingLeft=4;spacingRight=4;overflow=hidden;points=[[0,0.5],[1,0.5]];portConstraint=eastwest;rotatable=0;" vertex="1" parent="xGXZ_tOPPtuFmqoxac-9-1">
          <mxGeometry y="330" width="420" height="30" as="geometry" />
        </mxCell>
        <mxCell id="Kev87G5NXUICbZVva8Oe-35" value="+ mostrar_casillero()" style="text;strokeColor=none;fillColor=none;align=left;verticalAlign=middle;spacingLeft=4;spacingRight=4;overflow=hidden;points=[[0,0.5],[1,0.5]];portConstraint=eastwest;rotatable=0;" vertex="1" parent="xGXZ_tOPPtuFmqoxac-9-1">
          <mxGeometry y="360" width="420" height="30" as="geometry" />
        </mxCell>
        <mxCell id="Kev87G5NXUICbZVva8Oe-36" value="+ imprimir_resumen()" style="text;strokeColor=none;fillColor=none;align=left;verticalAlign=middle;spacingLeft=4;spacingRight=4;overflow=hidden;points=[[0,0.5],[1,0.5]];portConstraint=eastwest;rotatable=0;" vertex="1" parent="xGXZ_tOPPtuFmqoxac-9-1">
          <mxGeometry y="390" width="420" height="30" as="geometry" />
        </mxCell>
        <mxCell id="Kev87G5NXUICbZVva8Oe-37" value="+ agregar_material(nombre_material : string)" style="text;strokeColor=none;fillColor=none;align=left;verticalAlign=middle;spacingLeft=4;spacingRight=4;overflow=hidden;points=[[0,0.5],[1,0.5]];portConstraint=eastwest;rotatable=0;" vertex="1" parent="xGXZ_tOPPtuFmqoxac-9-1">
          <mxGeometry y="420" width="420" height="30" as="geometry" />
        </mxCell>
        <mxCell id="Kev87G5NXUICbZVva8Oe-39" value="+ devolver_material() : Material*" style="text;strokeColor=none;fillColor=none;align=left;verticalAlign=middle;spacingLeft=4;spacingRight=4;overflow=hidden;points=[[0,0.5],[1,0.5]];portConstraint=eastwest;rotatable=0;" vertex="1" parent="xGXZ_tOPPtuFmqoxac-9-1">
          <mxGeometry y="450" width="420" height="30" as="geometry" />
        </mxCell>
        <mxCell id="Kev87G5NXUICbZVva8Oe-38" value="+ devolver_nombre_material() : string" style="text;strokeColor=none;fillColor=none;align=left;verticalAlign=middle;spacingLeft=4;spacingRight=4;overflow=hidden;points=[[0,0.5],[1,0.5]];portConstraint=eastwest;rotatable=0;fontStyle=0" vertex="1" parent="xGXZ_tOPPtuFmqoxac-9-1">
          <mxGeometry y="480" width="420" height="30" as="geometry" />
        </mxCell>
        <mxCell id="xGXZ_tOPPtuFmqoxac-9-15" value="Mapa" style="swimlane;fontStyle=0;childLayout=stackLayout;horizontal=1;startSize=30;horizontalStack=0;resizeParent=1;resizeParentMax=0;resizeLast=0;collapsible=1;marginBottom=0;" parent="WIyWlLk6GJQsqaUBKTNV-1" vertex="1">
          <mxGeometry x="30" y="90" width="420" height="780" as="geometry" />
        </mxCell>
        <mxCell id="xGXZ_tOPPtuFmqoxac-9-28" value="- casilleros : ***Casillero " style="text;strokeColor=none;fillColor=none;align=left;verticalAlign=middle;spacingLeft=4;spacingRight=4;overflow=hidden;points=[[0,0.5],[1,0.5]];portConstraint=eastwest;rotatable=0;" parent="xGXZ_tOPPtuFmqoxac-9-15" vertex="1">
          <mxGeometry y="30" width="420" height="30" as="geometry" />
        </mxCell>
        <mxCell id="xGXZ_tOPPtuFmqoxac-9-241" value="&amp;nbsp;- cantidad_filas: int" style="text;whiteSpace=wrap;html=1;" parent="xGXZ_tOPPtuFmqoxac-9-15" vertex="1">
          <mxGeometry y="60" width="420" height="30" as="geometry" />
        </mxCell>
        <mxCell id="ObjNiQtIe-y4PP9NIwSY-3" value="&amp;nbsp;- cantidad_columnas : int" style="text;whiteSpace=wrap;html=1;" parent="xGXZ_tOPPtuFmqoxac-9-15" vertex="1">
          <mxGeometry y="90" width="420" height="30" as="geometry" />
        </mxCell>
        <mxCell id="xGXZ_tOPPtuFmqoxac-9-29" value="+ buscar_por_coordenada()" style="text;strokeColor=none;fillColor=none;align=left;verticalAlign=middle;spacingLeft=4;spacingRight=4;overflow=hidden;points=[[0,0.5],[1,0.5]];portConstraint=eastwest;rotatable=0;" parent="xGXZ_tOPPtuFmqoxac-9-15" vertex="1">
          <mxGeometry y="120" width="420" height="30" as="geometry" />
        </mxCell>
        <mxCell id="xGXZ_tOPPtuFmqoxac-9-21" value="" style="endArrow=none;html=1;rounded=0;entryX=1.005;entryY=-0.033;entryDx=0;entryDy=0;entryPerimeter=0;" parent="xGXZ_tOPPtuFmqoxac-9-15" target="xGXZ_tOPPtuFmqoxac-9-29" edge="1">
          <mxGeometry width="50" height="50" relative="1" as="geometry">
            <mxPoint y="119" as="sourcePoint" />
            <mxPoint x="139.44000000000005" y="60.16000000000008" as="targetPoint" />
            <Array as="points">
              <mxPoint x="180" y="119" />
            </Array>
          </mxGeometry>
        </mxCell>
        <mxCell id="ObjNiQtIe-y4PP9NIwSY-4" value="+ procesar_archivo()&amp;nbsp;" style="text;whiteSpace=wrap;html=1;" parent="xGXZ_tOPPtuFmqoxac-9-15" vertex="1">
          <mxGeometry y="150" width="420" height="30" as="geometry" />
        </mxCell>
        <mxCell id="ObjNiQtIe-y4PP9NIwSY-8" value="+ agregar_material_a_casillero(material: *Material, fila: int, columna: int)" style="text;whiteSpace=wrap;html=1;" parent="xGXZ_tOPPtuFmqoxac-9-15" vertex="1">
          <mxGeometry y="180" width="420" height="30" as="geometry" />
        </mxCell>
        <mxCell id="ObjNiQtIe-y4PP9NIwSY-6" value="+ agregar_edificio_a_casillero(edificio: *Edificio, fila: int, columna: int)" style="text;whiteSpace=wrap;html=1;" parent="xGXZ_tOPPtuFmqoxac-9-15" vertex="1">
          <mxGeometry y="210" width="420" height="30" as="geometry" />
        </mxCell>
        <mxCell id="ObjNiQtIe-y4PP9NIwSY-9" value="+ quitar_edificio_de_casillero(fila: int, columna: int)" style="text;whiteSpace=wrap;html=1;" parent="xGXZ_tOPPtuFmqoxac-9-15" vertex="1">
          <mxGeometry y="240" width="420" height="30" as="geometry" />
        </mxCell>
        <mxCell id="ObjNiQtIe-y4PP9NIwSY-10" value="+ mostrar_edificios_construidos()" style="text;whiteSpace=wrap;html=1;" parent="xGXZ_tOPPtuFmqoxac-9-15" vertex="1">
          <mxGeometry y="270" width="420" height="30" as="geometry" />
        </mxCell>
        <mxCell id="ObjNiQtIe-y4PP9NIwSY-5" value="+ mostrar()" style="text;whiteSpace=wrap;html=1;" parent="xGXZ_tOPPtuFmqoxac-9-15" vertex="1">
          <mxGeometry y="300" width="420" height="30" as="geometry" />
        </mxCell>
        <mxCell id="ObjNiQtIe-y4PP9NIwSY-11" value="+ cantidad_edificio_construido(nombre: string)" style="text;whiteSpace=wrap;html=1;" parent="xGXZ_tOPPtuFmqoxac-9-15" vertex="1">
          <mxGeometry y="330" width="420" height="30" as="geometry" />
        </mxCell>
        <mxCell id="ObjNiQtIe-y4PP9NIwSY-12" value="+ se_puede_construir(fila: int, columna: int)" style="text;whiteSpace=wrap;html=1;" parent="xGXZ_tOPPtuFmqoxac-9-15" vertex="1">
          <mxGeometry y="360" width="420" height="30" as="geometry" />
        </mxCell>
        <mxCell id="ObjNiQtIe-y4PP9NIwSY-13" value="+ devolver_cantidad_filas()" style="text;whiteSpace=wrap;html=1;" parent="xGXZ_tOPPtuFmqoxac-9-15" vertex="1">
          <mxGeometry y="390" width="420" height="30" as="geometry" />
        </mxCell>
        <mxCell id="ObjNiQtIe-y4PP9NIwSY-14" value="+ devolver_cantidad_columnas()" style="text;whiteSpace=wrap;html=1;" parent="xGXZ_tOPPtuFmqoxac-9-15" vertex="1">
          <mxGeometry y="420" width="420" height="30" as="geometry" />
        </mxCell>
        <mxCell id="ObjNiQtIe-y4PP9NIwSY-15" value="+ devolver_casillero(fila: int, columna: int)" style="text;whiteSpace=wrap;html=1;" parent="xGXZ_tOPPtuFmqoxac-9-15" vertex="1">
          <mxGeometry y="450" width="420" height="30" as="geometry" />
        </mxCell>
        <mxCell id="ObjNiQtIe-y4PP9NIwSY-17" value="+ devolver_edificio(fila: int, columhna: int)" style="text;whiteSpace=wrap;html=1;" parent="xGXZ_tOPPtuFmqoxac-9-15" vertex="1">
          <mxGeometry y="480" width="420" height="30" as="geometry" />
        </mxCell>
        <mxCell id="ObjNiQtIe-y4PP9NIwSY-16" value="+ devolver_resumen_casillero(fila: int, columna:int)" style="text;whiteSpace=wrap;html=1;" parent="xGXZ_tOPPtuFmqoxac-9-15" vertex="1">
          <mxGeometry y="510" width="420" height="30" as="geometry" />
        </mxCell>
        <mxCell id="ObjNiQtIe-y4PP9NIwSY-18" value="+ lluvia_recursos()" style="text;whiteSpace=wrap;html=1;" parent="xGXZ_tOPPtuFmqoxac-9-15" vertex="1">
          <mxGeometry y="540" width="420" height="30" as="geometry" />
        </mxCell>
        <mxCell id="ObjNiQtIe-y4PP9NIwSY-19" value="+ hay_algun_edificio_construido()" style="text;whiteSpace=wrap;html=1;" parent="xGXZ_tOPPtuFmqoxac-9-15" vertex="1">
          <mxGeometry y="570" width="420" height="30" as="geometry" />
        </mxCell>
        <mxCell id="ObjNiQtIe-y4PP9NIwSY-20" value="+ cerrar_ubicaciones(path: string)" style="text;whiteSpace=wrap;html=1;" parent="xGXZ_tOPPtuFmqoxac-9-15" vertex="1">
          <mxGeometry y="600" width="420" height="30" as="geometry" />
        </mxCell>
        <mxCell id="ObjNiQtIe-y4PP9NIwSY-21" value="- agregar_casillero(&amp;amp;archivo: ifstraeam)" style="text;whiteSpace=wrap;html=1;" parent="xGXZ_tOPPtuFmqoxac-9-15" vertex="1">
          <mxGeometry y="630" width="420" height="30" as="geometry" />
        </mxCell>
        <mxCell id="ObjNiQtIe-y4PP9NIwSY-22" value="- crear_matriz_casilleros()" style="text;whiteSpace=wrap;html=1;" parent="xGXZ_tOPPtuFmqoxac-9-15" vertex="1">
          <mxGeometry y="660" width="420" height="30" as="geometry" />
        </mxCell>
        <mxCell id="ObjNiQtIe-y4PP9NIwSY-24" value="- agregar_materiales(material: string, minimo: int, maximo: int)" style="text;whiteSpace=wrap;html=1;" parent="xGXZ_tOPPtuFmqoxac-9-15" vertex="1">
          <mxGeometry y="690" width="420" height="30" as="geometry" />
        </mxCell>
        <mxCell id="ObjNiQtIe-y4PP9NIwSY-23" value="- numero_aleatorio(desde: int, hasta: int)" style="text;whiteSpace=wrap;html=1;" parent="xGXZ_tOPPtuFmqoxac-9-15" vertex="1">
          <mxGeometry y="720" width="420" height="30" as="geometry" />
        </mxCell>
        <mxCell id="ObjNiQtIe-y4PP9NIwSY-25" value="- mostrar_objetos_mapa()" style="text;whiteSpace=wrap;html=1;" parent="xGXZ_tOPPtuFmqoxac-9-15" vertex="1">
          <mxGeometry y="750" width="420" height="30" as="geometry" />
        </mxCell>
        <mxCell id="xGXZ_tOPPtuFmqoxac-9-189" value="Casillero_transitable" style="swimlane;fontStyle=0;childLayout=stackLayout;horizontal=1;startSize=30;horizontalStack=0;resizeParent=1;resizeParentMax=0;resizeLast=0;collapsible=1;marginBottom=0;" parent="WIyWlLk6GJQsqaUBKTNV-1" vertex="1">
          <mxGeometry x="1080" y="240" width="176" height="330" as="geometry" />
        </mxCell>
        <mxCell id="xGXZ_tOPPtuFmqoxac-9-190" value="- ocupado: bool" style="text;strokeColor=none;fillColor=none;align=left;verticalAlign=middle;spacingLeft=4;spacingRight=4;overflow=hidden;points=[[0,0.5],[1,0.5]];portConstraint=eastwest;rotatable=0;" parent="xGXZ_tOPPtuFmqoxac-9-189" vertex="1">
          <mxGeometry y="30" width="176" height="30" as="geometry" />
        </mxCell>
        <mxCell id="xGXZ_tOPPtuFmqoxac-9-192" value="- materiales: *Material" style="text;strokeColor=none;fillColor=none;align=left;verticalAlign=middle;spacingLeft=4;spacingRight=4;overflow=hidden;points=[[0,0.5],[1,0.5]];portConstraint=eastwest;rotatable=0;" parent="xGXZ_tOPPtuFmqoxac-9-189" vertex="1">
          <mxGeometry y="60" width="176" height="30" as="geometry" />
        </mxCell>
        <mxCell id="xGXZ_tOPPtuFmqoxac-9-193" value="- tipo_de_terreno: string" style="text;strokeColor=none;fillColor=none;align=left;verticalAlign=middle;spacingLeft=4;spacingRight=4;overflow=hidden;points=[[0,0.5],[1,0.5]];portConstraint=eastwest;rotatable=0;" parent="xGXZ_tOPPtuFmqoxac-9-189" vertex="1">
          <mxGeometry y="90" width="176" height="30" as="geometry" />
        </mxCell>
        <mxCell id="xGXZ_tOPPtuFmqoxac-9-194" value="- pos_x = int" style="text;strokeColor=none;fillColor=none;align=left;verticalAlign=middle;spacingLeft=4;spacingRight=4;overflow=hidden;points=[[0,0.5],[1,0.5]];portConstraint=eastwest;rotatable=0;" parent="xGXZ_tOPPtuFmqoxac-9-189" vertex="1">
          <mxGeometry y="120" width="176" height="30" as="geometry" />
        </mxCell>
        <mxCell id="xGXZ_tOPPtuFmqoxac-9-195" value="- pos_y = int" style="text;strokeColor=none;fillColor=none;align=left;verticalAlign=middle;spacingLeft=4;spacingRight=4;overflow=hidden;points=[[0,0.5],[1,0.5]];portConstraint=eastwest;rotatable=0;" parent="xGXZ_tOPPtuFmqoxac-9-189" vertex="1">
          <mxGeometry y="150" width="176" height="30" as="geometry" />
        </mxCell>
        <mxCell id="xGXZ_tOPPtuFmqoxac-9-196" value="" style="endArrow=none;html=1;rounded=0;entryX=1.002;entryY=0;entryDx=0;entryDy=0;entryPerimeter=0;exitX=0.015;exitY=0;exitDx=0;exitDy=0;exitPerimeter=0;" parent="xGXZ_tOPPtuFmqoxac-9-189" source="xGXZ_tOPPtuFmqoxac-9-197" target="xGXZ_tOPPtuFmqoxac-9-197" edge="1">
          <mxGeometry width="50" height="50" relative="1" as="geometry">
            <mxPoint y="179" as="sourcePoint" />
            <mxPoint x="120" y="179" as="targetPoint" />
          </mxGeometry>
        </mxCell>
        <mxCell id="xGXZ_tOPPtuFmqoxac-9-197" value="+ mostrar()" style="text;strokeColor=none;fillColor=none;align=left;verticalAlign=middle;spacingLeft=4;spacingRight=4;overflow=hidden;points=[[0,0.5],[1,0.5]];portConstraint=eastwest;rotatable=0;" parent="xGXZ_tOPPtuFmqoxac-9-189" vertex="1">
          <mxGeometry y="180" width="176" height="30" as="geometry" />
        </mxCell>
        <mxCell id="xGXZ_tOPPtuFmqoxac-9-198" value="+ esta_ocupado()" style="text;strokeColor=none;fillColor=none;align=left;verticalAlign=middle;spacingLeft=4;spacingRight=4;overflow=hidden;points=[[0,0.5],[1,0.5]];portConstraint=eastwest;rotatable=0;" parent="xGXZ_tOPPtuFmqoxac-9-189" vertex="1">
          <mxGeometry y="210" width="176" height="30" as="geometry" />
        </mxCell>
        <mxCell id="xGXZ_tOPPtuFmqoxac-9-201" value="+ añadir_material()" style="text;strokeColor=none;fillColor=none;align=left;verticalAlign=middle;spacingLeft=4;spacingRight=4;overflow=hidden;points=[[0,0.5],[1,0.5]];portConstraint=eastwest;rotatable=0;" parent="xGXZ_tOPPtuFmqoxac-9-189" vertex="1">
          <mxGeometry y="240" width="176" height="30" as="geometry" />
        </mxCell>
        <mxCell id="xGXZ_tOPPtuFmqoxac-9-202" value="+ eliminar_material()" style="text;strokeColor=none;fillColor=none;align=left;verticalAlign=middle;spacingLeft=4;spacingRight=4;overflow=hidden;points=[[0,0.5],[1,0.5]];portConstraint=eastwest;rotatable=0;" parent="xGXZ_tOPPtuFmqoxac-9-189" vertex="1">
          <mxGeometry y="270" width="176" height="30" as="geometry" />
        </mxCell>
        <mxCell id="xGXZ_tOPPtuFmqoxac-9-203" value="+ consultar_coordenada()" style="text;strokeColor=none;fillColor=none;align=left;verticalAlign=middle;spacingLeft=4;spacingRight=4;overflow=hidden;points=[[0,0.5],[1,0.5]];portConstraint=eastwest;rotatable=0;" parent="xGXZ_tOPPtuFmqoxac-9-189" vertex="1">
          <mxGeometry y="300" width="176" height="30" as="geometry" />
        </mxCell>
        <mxCell id="xGXZ_tOPPtuFmqoxac-9-204" value="Casillero_no_accesible" style="swimlane;fontStyle=0;childLayout=stackLayout;horizontal=1;startSize=30;horizontalStack=0;resizeParent=1;resizeParentMax=0;resizeLast=0;collapsible=1;marginBottom=0;" parent="WIyWlLk6GJQsqaUBKTNV-1" vertex="1">
          <mxGeometry x="510" y="580" width="176" height="180" as="geometry" />
        </mxCell>
        <mxCell id="xGXZ_tOPPtuFmqoxac-9-207" value="- tipo_de_terreno: string" style="text;strokeColor=none;fillColor=none;align=left;verticalAlign=middle;spacingLeft=4;spacingRight=4;overflow=hidden;points=[[0,0.5],[1,0.5]];portConstraint=eastwest;rotatable=0;" parent="xGXZ_tOPPtuFmqoxac-9-204" vertex="1">
          <mxGeometry y="30" width="176" height="30" as="geometry" />
        </mxCell>
        <mxCell id="xGXZ_tOPPtuFmqoxac-9-208" value="- pos_x = int" style="text;strokeColor=none;fillColor=none;align=left;verticalAlign=middle;spacingLeft=4;spacingRight=4;overflow=hidden;points=[[0,0.5],[1,0.5]];portConstraint=eastwest;rotatable=0;" parent="xGXZ_tOPPtuFmqoxac-9-204" vertex="1">
          <mxGeometry y="60" width="176" height="30" as="geometry" />
        </mxCell>
        <mxCell id="xGXZ_tOPPtuFmqoxac-9-209" value="- pos_y = int" style="text;strokeColor=none;fillColor=none;align=left;verticalAlign=middle;spacingLeft=4;spacingRight=4;overflow=hidden;points=[[0,0.5],[1,0.5]];portConstraint=eastwest;rotatable=0;" parent="xGXZ_tOPPtuFmqoxac-9-204" vertex="1">
          <mxGeometry y="90" width="176" height="30" as="geometry" />
        </mxCell>
        <mxCell id="xGXZ_tOPPtuFmqoxac-9-210" value="" style="endArrow=none;html=1;rounded=0;entryX=1.002;entryY=0;entryDx=0;entryDy=0;entryPerimeter=0;exitX=0.015;exitY=0;exitDx=0;exitDy=0;exitPerimeter=0;" parent="xGXZ_tOPPtuFmqoxac-9-204" source="xGXZ_tOPPtuFmqoxac-9-211" target="xGXZ_tOPPtuFmqoxac-9-211" edge="1">
          <mxGeometry width="50" height="50" relative="1" as="geometry">
            <mxPoint y="179" as="sourcePoint" />
            <mxPoint x="120" y="179" as="targetPoint" />
          </mxGeometry>
        </mxCell>
        <mxCell id="xGXZ_tOPPtuFmqoxac-9-211" value="+ mostrar()" style="text;strokeColor=none;fillColor=none;align=left;verticalAlign=middle;spacingLeft=4;spacingRight=4;overflow=hidden;points=[[0,0.5],[1,0.5]];portConstraint=eastwest;rotatable=0;" parent="xGXZ_tOPPtuFmqoxac-9-204" vertex="1">
          <mxGeometry y="120" width="176" height="30" as="geometry" />
        </mxCell>
        <mxCell id="xGXZ_tOPPtuFmqoxac-9-215" value="+ consultar_coordenada()" style="text;strokeColor=none;fillColor=none;align=left;verticalAlign=middle;spacingLeft=4;spacingRight=4;overflow=hidden;points=[[0,0.5],[1,0.5]];portConstraint=eastwest;rotatable=0;" parent="xGXZ_tOPPtuFmqoxac-9-204" vertex="1">
          <mxGeometry y="150" width="176" height="30" as="geometry" />
        </mxCell>
        <mxCell id="xGXZ_tOPPtuFmqoxac-9-216" value="Casillero" style="swimlane;fontStyle=2;childLayout=stackLayout;horizontal=1;startSize=30;horizontalStack=0;resizeParent=1;resizeParentMax=0;resizeLast=0;collapsible=1;marginBottom=0;" parent="WIyWlLk6GJQsqaUBKTNV-1" vertex="1">
          <mxGeometry x="1120" y="-1010" width="320" height="660" as="geometry" />
        </mxCell>
        <mxCell id="xGXZ_tOPPtuFmqoxac-9-217" value="- tipo_de_terreno: char" style="text;strokeColor=none;fillColor=none;align=left;verticalAlign=middle;spacingLeft=4;spacingRight=4;overflow=hidden;points=[[0,0.5],[1,0.5]];portConstraint=eastwest;rotatable=0;" parent="xGXZ_tOPPtuFmqoxac-9-216" vertex="1">
          <mxGeometry y="30" width="320" height="30" as="geometry" />
        </mxCell>
        <mxCell id="xGXZ_tOPPtuFmqoxac-9-218" value="- pos_x = int" style="text;strokeColor=none;fillColor=none;align=left;verticalAlign=middle;spacingLeft=4;spacingRight=4;overflow=hidden;points=[[0,0.5],[1,0.5]];portConstraint=eastwest;rotatable=0;" parent="xGXZ_tOPPtuFmqoxac-9-216" vertex="1">
          <mxGeometry y="60" width="320" height="30" as="geometry" />
        </mxCell>
        <mxCell id="xGXZ_tOPPtuFmqoxac-9-219" value="- pos_y = int" style="text;strokeColor=none;fillColor=none;align=left;verticalAlign=middle;spacingLeft=4;spacingRight=4;overflow=hidden;points=[[0,0.5],[1,0.5]];portConstraint=eastwest;rotatable=0;" parent="xGXZ_tOPPtuFmqoxac-9-216" vertex="1">
          <mxGeometry y="90" width="320" height="30" as="geometry" />
        </mxCell>
        <mxCell id="xGXZ_tOPPtuFmqoxac-9-220" value="" style="endArrow=none;html=1;rounded=0;entryX=1.002;entryY=0;entryDx=0;entryDy=0;entryPerimeter=0;exitX=0.015;exitY=0;exitDx=0;exitDy=0;exitPerimeter=0;" parent="xGXZ_tOPPtuFmqoxac-9-216" source="xGXZ_tOPPtuFmqoxac-9-221" target="xGXZ_tOPPtuFmqoxac-9-221" edge="1">
          <mxGeometry width="50" height="50" relative="1" as="geometry">
            <mxPoint y="179" as="sourcePoint" />
            <mxPoint x="120" y="179" as="targetPoint" />
          </mxGeometry>
        </mxCell>
        <mxCell id="xGXZ_tOPPtuFmqoxac-9-221" value="+ Casillero(tipo_terreno : char, pos_x : int, pos_y : int)" style="text;strokeColor=none;fillColor=none;align=left;verticalAlign=middle;spacingLeft=4;spacingRight=4;overflow=hidden;points=[[0,0.5],[1,0.5]];portConstraint=eastwest;rotatable=0;" parent="xGXZ_tOPPtuFmqoxac-9-216" vertex="1">
          <mxGeometry y="120" width="320" height="30" as="geometry" />
        </mxCell>
        <mxCell id="Kev87G5NXUICbZVva8Oe-3" value="+ Casillero()" style="text;strokeColor=none;fillColor=none;align=left;verticalAlign=middle;spacingLeft=4;spacingRight=4;overflow=hidden;points=[[0,0.5],[1,0.5]];portConstraint=eastwest;rotatable=0;" vertex="1" parent="xGXZ_tOPPtuFmqoxac-9-216">
          <mxGeometry y="150" width="320" height="30" as="geometry" />
        </mxCell>
        <mxCell id="Kev87G5NXUICbZVva8Oe-10" value="+ ~Casillero()" style="text;strokeColor=none;fillColor=none;align=left;verticalAlign=middle;spacingLeft=4;spacingRight=4;overflow=hidden;points=[[0,0.5],[1,0.5]];portConstraint=eastwest;rotatable=0;" vertex="1" parent="xGXZ_tOPPtuFmqoxac-9-216">
          <mxGeometry y="180" width="320" height="30" as="geometry" />
        </mxCell>
        <mxCell id="Kev87G5NXUICbZVva8Oe-16" value="+ mostrar()" style="text;strokeColor=none;fillColor=none;align=left;verticalAlign=middle;spacingLeft=4;spacingRight=4;overflow=hidden;points=[[0,0.5],[1,0.5]];portConstraint=eastwest;rotatable=0;" vertex="1" parent="xGXZ_tOPPtuFmqoxac-9-216">
          <mxGeometry y="210" width="320" height="30" as="geometry" />
        </mxCell>
        <mxCell id="Kev87G5NXUICbZVva8Oe-2" value="+ devolver_tipo_terreno() : char" style="text;strokeColor=none;fillColor=none;align=left;verticalAlign=middle;spacingLeft=4;spacingRight=4;overflow=hidden;points=[[0,0.5],[1,0.5]];portConstraint=eastwest;rotatable=0;" vertex="1" parent="xGXZ_tOPPtuFmqoxac-9-216">
          <mxGeometry y="240" width="320" height="30" as="geometry" />
        </mxCell>
        <mxCell id="Kev87G5NXUICbZVva8Oe-4" value="+ devolver_pos_x() : int" style="text;strokeColor=none;fillColor=none;align=left;verticalAlign=middle;spacingLeft=4;spacingRight=4;overflow=hidden;points=[[0,0.5],[1,0.5]];portConstraint=eastwest;rotatable=0;" vertex="1" parent="xGXZ_tOPPtuFmqoxac-9-216">
          <mxGeometry y="270" width="320" height="30" as="geometry" />
        </mxCell>
        <mxCell id="Kev87G5NXUICbZVva8Oe-11" value="+ devolver_pos_y() : int" style="text;strokeColor=none;fillColor=none;align=left;verticalAlign=middle;spacingLeft=4;spacingRight=4;overflow=hidden;points=[[0,0.5],[1,0.5]];portConstraint=eastwest;rotatable=0;" vertex="1" parent="xGXZ_tOPPtuFmqoxac-9-216">
          <mxGeometry y="300" width="320" height="30" as="geometry" />
        </mxCell>
        <mxCell id="Kev87G5NXUICbZVva8Oe-15" value="+ modificar_tipo_terreno() " style="text;strokeColor=none;fillColor=none;align=left;verticalAlign=middle;spacingLeft=4;spacingRight=4;overflow=hidden;points=[[0,0.5],[1,0.5]];portConstraint=eastwest;rotatable=0;" vertex="1" parent="xGXZ_tOPPtuFmqoxac-9-216">
          <mxGeometry y="330" width="320" height="30" as="geometry" />
        </mxCell>
        <mxCell id="Kev87G5NXUICbZVva8Oe-12" value="+ modificar_pos_x() " style="text;strokeColor=none;fillColor=none;align=left;verticalAlign=middle;spacingLeft=4;spacingRight=4;overflow=hidden;points=[[0,0.5],[1,0.5]];portConstraint=eastwest;rotatable=0;" vertex="1" parent="xGXZ_tOPPtuFmqoxac-9-216">
          <mxGeometry y="360" width="320" height="30" as="geometry" />
        </mxCell>
        <mxCell id="Kev87G5NXUICbZVva8Oe-13" value="+ agregar_edificio(edificio : Edificio*)" style="text;strokeColor=none;fillColor=none;align=left;verticalAlign=middle;spacingLeft=4;spacingRight=4;overflow=hidden;points=[[0,0.5],[1,0.5]];portConstraint=eastwest;rotatable=0;" vertex="1" parent="xGXZ_tOPPtuFmqoxac-9-216">
          <mxGeometry y="390" width="320" height="30" as="geometry" />
        </mxCell>
        <mxCell id="Kev87G5NXUICbZVva8Oe-20" value="+ devolver_edificio_nombre_edificio() : string" style="text;strokeColor=none;fillColor=none;align=left;verticalAlign=middle;spacingLeft=4;spacingRight=4;overflow=hidden;points=[[0,0.5],[1,0.5]];portConstraint=eastwest;rotatable=0;" vertex="1" parent="xGXZ_tOPPtuFmqoxac-9-216">
          <mxGeometry y="420" width="320" height="30" as="geometry" />
        </mxCell>
        <mxCell id="Kev87G5NXUICbZVva8Oe-24" value="+ devolver_edificio() : Edificio*" style="text;strokeColor=none;fillColor=none;align=left;verticalAlign=middle;spacingLeft=4;spacingRight=4;overflow=hidden;points=[[0,0.5],[1,0.5]];portConstraint=eastwest;rotatable=0;" vertex="1" parent="xGXZ_tOPPtuFmqoxac-9-216">
          <mxGeometry y="450" width="320" height="30" as="geometry" />
        </mxCell>
        <mxCell id="Kev87G5NXUICbZVva8Oe-22" value="+ esta_ocupado() : bool" style="text;strokeColor=none;fillColor=none;align=left;verticalAlign=middle;spacingLeft=4;spacingRight=4;overflow=hidden;points=[[0,0.5],[1,0.5]];portConstraint=eastwest;rotatable=0;" vertex="1" parent="xGXZ_tOPPtuFmqoxac-9-216">
          <mxGeometry y="480" width="320" height="30" as="geometry" />
        </mxCell>
        <mxCell id="Kev87G5NXUICbZVva8Oe-23" value="+ mostrar_casillero()" style="text;strokeColor=none;fillColor=none;align=left;verticalAlign=middle;spacingLeft=4;spacingRight=4;overflow=hidden;points=[[0,0.5],[1,0.5]];portConstraint=eastwest;rotatable=0;" vertex="1" parent="xGXZ_tOPPtuFmqoxac-9-216">
          <mxGeometry y="510" width="320" height="30" as="geometry" />
        </mxCell>
        <mxCell id="Kev87G5NXUICbZVva8Oe-21" value="+ imprimir_resumen()" style="text;strokeColor=none;fillColor=none;align=left;verticalAlign=middle;spacingLeft=4;spacingRight=4;overflow=hidden;points=[[0,0.5],[1,0.5]];portConstraint=eastwest;rotatable=0;" vertex="1" parent="xGXZ_tOPPtuFmqoxac-9-216">
          <mxGeometry y="540" width="320" height="30" as="geometry" />
        </mxCell>
        <mxCell id="Kev87G5NXUICbZVva8Oe-18" value="+ agregar_material(nombre_material : string)" style="text;strokeColor=none;fillColor=none;align=left;verticalAlign=middle;spacingLeft=4;spacingRight=4;overflow=hidden;points=[[0,0.5],[1,0.5]];portConstraint=eastwest;rotatable=0;" vertex="1" parent="xGXZ_tOPPtuFmqoxac-9-216">
          <mxGeometry y="570" width="320" height="30" as="geometry" />
        </mxCell>
        <mxCell id="Kev87G5NXUICbZVva8Oe-19" value="+ devolver_material() : Material*" style="text;strokeColor=none;fillColor=none;align=left;verticalAlign=middle;spacingLeft=4;spacingRight=4;overflow=hidden;points=[[0,0.5],[1,0.5]];portConstraint=eastwest;rotatable=0;" vertex="1" parent="xGXZ_tOPPtuFmqoxac-9-216">
          <mxGeometry y="600" width="320" height="30" as="geometry" />
        </mxCell>
        <mxCell id="Kev87G5NXUICbZVva8Oe-25" value="+ devolver_nombre_material() : string" style="text;strokeColor=none;fillColor=none;align=left;verticalAlign=middle;spacingLeft=4;spacingRight=4;overflow=hidden;points=[[0,0.5],[1,0.5]];portConstraint=eastwest;rotatable=0;fontStyle=0" vertex="1" parent="xGXZ_tOPPtuFmqoxac-9-216">
          <mxGeometry y="630" width="320" height="30" as="geometry" />
        </mxCell>
        <mxCell id="xGXZ_tOPPtuFmqoxac-9-240" style="edgeStyle=orthogonalEdgeStyle;rounded=0;orthogonalLoop=1;jettySize=auto;html=1;exitX=0.5;exitY=0;exitDx=0;exitDy=0;" parent="WIyWlLk6GJQsqaUBKTNV-1" source="xGXZ_tOPPtuFmqoxac-9-227" edge="1">
          <mxGeometry relative="1" as="geometry">
            <mxPoint x="920" y="950" as="targetPoint" />
          </mxGeometry>
        </mxCell>
        <mxCell id="xGXZ_tOPPtuFmqoxac-9-227" value="Edificio" style="swimlane;fontStyle=0;childLayout=stackLayout;horizontal=1;startSize=30;horizontalStack=0;resizeParent=1;resizeParentMax=0;resizeLast=0;collapsible=1;marginBottom=0;" parent="WIyWlLk6GJQsqaUBKTNV-1" vertex="1">
          <mxGeometry x="820" y="1580" width="176" height="210" as="geometry" />
        </mxCell>
        <mxCell id="xGXZ_tOPPtuFmqoxac-9-228" value="- nombre: string" style="text;strokeColor=none;fillColor=none;align=left;verticalAlign=middle;spacingLeft=4;spacingRight=4;overflow=hidden;points=[[0,0.5],[1,0.5]];portConstraint=eastwest;rotatable=0;" parent="xGXZ_tOPPtuFmqoxac-9-227" vertex="1">
          <mxGeometry y="30" width="176" height="30" as="geometry" />
        </mxCell>
        <mxCell id="xGXZ_tOPPtuFmqoxac-9-229" value="- madera = int" style="text;strokeColor=none;fillColor=none;align=left;verticalAlign=middle;spacingLeft=4;spacingRight=4;overflow=hidden;points=[[0,0.5],[1,0.5]];portConstraint=eastwest;rotatable=0;" parent="xGXZ_tOPPtuFmqoxac-9-227" vertex="1">
          <mxGeometry y="60" width="176" height="30" as="geometry" />
        </mxCell>
        <mxCell id="xGXZ_tOPPtuFmqoxac-9-230" value="- piedra = int" style="text;strokeColor=none;fillColor=none;align=left;verticalAlign=middle;spacingLeft=4;spacingRight=4;overflow=hidden;points=[[0,0.5],[1,0.5]];portConstraint=eastwest;rotatable=0;" parent="xGXZ_tOPPtuFmqoxac-9-227" vertex="1">
          <mxGeometry y="90" width="176" height="30" as="geometry" />
        </mxCell>
        <mxCell id="xGXZ_tOPPtuFmqoxac-9-231" value="" style="endArrow=none;html=1;rounded=0;entryX=1.002;entryY=0;entryDx=0;entryDy=0;entryPerimeter=0;exitX=0.015;exitY=0;exitDx=0;exitDy=0;exitPerimeter=0;" parent="xGXZ_tOPPtuFmqoxac-9-227" source="xGXZ_tOPPtuFmqoxac-9-232" target="xGXZ_tOPPtuFmqoxac-9-232" edge="1">
          <mxGeometry width="50" height="50" relative="1" as="geometry">
            <mxPoint y="179" as="sourcePoint" />
            <mxPoint x="120" y="179" as="targetPoint" />
          </mxGeometry>
        </mxCell>
        <mxCell id="xGXZ_tOPPtuFmqoxac-9-234" value="- metal = int" style="text;strokeColor=none;fillColor=none;align=left;verticalAlign=middle;spacingLeft=4;spacingRight=4;overflow=hidden;points=[[0,0.5],[1,0.5]];portConstraint=eastwest;rotatable=0;" parent="xGXZ_tOPPtuFmqoxac-9-227" vertex="1">
          <mxGeometry y="120" width="176" height="30" as="geometry" />
        </mxCell>
        <mxCell id="xGXZ_tOPPtuFmqoxac-9-232" value="+ mostrar()" style="text;strokeColor=none;fillColor=none;align=left;verticalAlign=middle;spacingLeft=4;spacingRight=4;overflow=hidden;points=[[0,0.5],[1,0.5]];portConstraint=eastwest;rotatable=0;" parent="xGXZ_tOPPtuFmqoxac-9-227" vertex="1">
          <mxGeometry y="150" width="176" height="30" as="geometry" />
        </mxCell>
        <mxCell id="xGXZ_tOPPtuFmqoxac-9-233" value="+ recolectar()" style="text;strokeColor=none;fillColor=none;align=left;verticalAlign=middle;spacingLeft=4;spacingRight=4;overflow=hidden;points=[[0,0.5],[1,0.5]];portConstraint=eastwest;rotatable=0;" parent="xGXZ_tOPPtuFmqoxac-9-227" vertex="1">
          <mxGeometry y="180" width="176" height="30" as="geometry" />
        </mxCell>
        <mxCell id="xGXZ_tOPPtuFmqoxac-9-243" value="Material" style="swimlane;fontStyle=0;childLayout=stackLayout;horizontal=1;startSize=30;horizontalStack=0;resizeParent=1;resizeParentMax=0;resizeLast=0;collapsible=1;marginBottom=0;" parent="WIyWlLk6GJQsqaUBKTNV-1" vertex="1">
          <mxGeometry x="1030" y="1100" width="176" height="120" as="geometry" />
        </mxCell>
        <mxCell id="xGXZ_tOPPtuFmqoxac-9-244" value="- nombre: string" style="text;strokeColor=none;fillColor=none;align=left;verticalAlign=middle;spacingLeft=4;spacingRight=4;overflow=hidden;points=[[0,0.5],[1,0.5]];portConstraint=eastwest;rotatable=0;" parent="xGXZ_tOPPtuFmqoxac-9-243" vertex="1">
          <mxGeometry y="30" width="176" height="30" as="geometry" />
        </mxCell>
        <mxCell id="xGXZ_tOPPtuFmqoxac-9-245" value="- cantidad = int" style="text;strokeColor=none;fillColor=none;align=left;verticalAlign=middle;spacingLeft=4;spacingRight=4;overflow=hidden;points=[[0,0.5],[1,0.5]];portConstraint=eastwest;rotatable=0;" parent="xGXZ_tOPPtuFmqoxac-9-243" vertex="1">
          <mxGeometry y="60" width="176" height="30" as="geometry" />
        </mxCell>
        <mxCell id="xGXZ_tOPPtuFmqoxac-9-247" value="" style="endArrow=none;html=1;rounded=0;entryX=1.002;entryY=0;entryDx=0;entryDy=0;entryPerimeter=0;exitX=0.015;exitY=0;exitDx=0;exitDy=0;exitPerimeter=0;" parent="xGXZ_tOPPtuFmqoxac-9-243" source="xGXZ_tOPPtuFmqoxac-9-250" target="xGXZ_tOPPtuFmqoxac-9-250" edge="1">
          <mxGeometry width="50" height="50" relative="1" as="geometry">
            <mxPoint y="179" as="sourcePoint" />
            <mxPoint x="120" y="179" as="targetPoint" />
          </mxGeometry>
        </mxCell>
        <mxCell id="xGXZ_tOPPtuFmqoxac-9-250" value="+ mostrar()" style="text;strokeColor=none;fillColor=none;align=left;verticalAlign=middle;spacingLeft=4;spacingRight=4;overflow=hidden;points=[[0,0.5],[1,0.5]];portConstraint=eastwest;rotatable=0;" parent="xGXZ_tOPPtuFmqoxac-9-243" vertex="1">
          <mxGeometry y="90" width="176" height="30" as="geometry" />
        </mxCell>
        <mxCell id="xGXZ_tOPPtuFmqoxac-9-253" value="Juego" style="swimlane;fontStyle=0;childLayout=stackLayout;horizontal=1;startSize=30;horizontalStack=0;resizeParent=1;resizeParentMax=0;resizeLast=0;collapsible=1;marginBottom=0;" parent="WIyWlLk6GJQsqaUBKTNV-1" vertex="1">
          <mxGeometry x="1980" y="105" width="300" height="960" as="geometry" />
        </mxCell>
        <mxCell id="xGXZ_tOPPtuFmqoxac-9-254" value="- edificios: *Edificios " style="text;strokeColor=none;fillColor=none;align=left;verticalAlign=middle;spacingLeft=4;spacingRight=4;overflow=hidden;points=[[0,0.5],[1,0.5]];portConstraint=eastwest;rotatable=0;" parent="xGXZ_tOPPtuFmqoxac-9-253" vertex="1">
          <mxGeometry y="30" width="300" height="30" as="geometry" />
        </mxCell>
        <UserObject label="&amp;nbsp;- materiales: *Materiales" link="https://github.com/Rbartoncello/tp_2_ayp2" id="DX40YdvMPcdN43nip_q0-0">
          <mxCell style="text;whiteSpace=wrap;html=1;" vertex="1" parent="xGXZ_tOPPtuFmqoxac-9-253">
            <mxGeometry y="60" width="300" height="30" as="geometry" />
          </mxCell>
        </UserObject>
        <mxCell id="DX40YdvMPcdN43nip_q0-1" value="&amp;nbsp;- mapa: *Mapa" style="text;whiteSpace=wrap;html=1;" vertex="1" parent="xGXZ_tOPPtuFmqoxac-9-253">
          <mxGeometry y="90" width="300" height="30" as="geometry" />
        </mxCell>
        <mxCell id="xGXZ_tOPPtuFmqoxac-9-256" value="+ cargar_juego()" style="text;strokeColor=none;fillColor=none;align=left;verticalAlign=middle;spacingLeft=4;spacingRight=4;overflow=hidden;points=[[0,0.5],[1,0.5]];portConstraint=eastwest;rotatable=0;" parent="xGXZ_tOPPtuFmqoxac-9-253" vertex="1">
          <mxGeometry y="120" width="300" height="30" as="geometry" />
        </mxCell>
        <mxCell id="xGXZ_tOPPtuFmqoxac-9-257" value="" style="endArrow=none;html=1;rounded=0;entryX=1.005;entryY=-0.033;entryDx=0;entryDy=0;entryPerimeter=0;exitX=0.006;exitY=-0.058;exitDx=0;exitDy=0;exitPerimeter=0;" parent="xGXZ_tOPPtuFmqoxac-9-253" source="xGXZ_tOPPtuFmqoxac-9-256" target="xGXZ_tOPPtuFmqoxac-9-256" edge="1">
          <mxGeometry width="50" height="50" relative="1" as="geometry">
            <mxPoint y="90" as="sourcePoint" />
            <mxPoint x="139.44000000000005" y="60.16000000000008" as="targetPoint" />
          </mxGeometry>
        </mxCell>
        <mxCell id="DX40YdvMPcdN43nip_q0-2" value="+ Juego()" style="text;whiteSpace=wrap;html=1;" vertex="1" parent="xGXZ_tOPPtuFmqoxac-9-253">
          <mxGeometry y="150" width="300" height="30" as="geometry" />
        </mxCell>
        <mxCell id="DX40YdvMPcdN43nip_q0-4" value="+ ~Juego()" style="text;whiteSpace=wrap;html=1;" vertex="1" parent="xGXZ_tOPPtuFmqoxac-9-253">
          <mxGeometry y="180" width="300" height="30" as="geometry" />
        </mxCell>
        <mxCell id="DX40YdvMPcdN43nip_q0-5" value="+ jugar()" style="text;whiteSpace=wrap;html=1;" vertex="1" parent="xGXZ_tOPPtuFmqoxac-9-253">
          <mxGeometry y="210" width="300" height="30" as="geometry" />
        </mxCell>
        <mxCell id="DX40YdvMPcdN43nip_q0-6" value="+ mensaje_bienvenida()" style="text;whiteSpace=wrap;html=1;" vertex="1" parent="xGXZ_tOPPtuFmqoxac-9-253">
          <mxGeometry y="240" width="300" height="30" as="geometry" />
        </mxCell>
        <mxCell id="DX40YdvMPcdN43nip_q0-7" value="+ cerrar()" style="text;whiteSpace=wrap;html=1;" vertex="1" parent="xGXZ_tOPPtuFmqoxac-9-253">
          <mxGeometry y="270" width="300" height="30" as="geometry" />
        </mxCell>
        <mxCell id="DX40YdvMPcdN43nip_q0-8" value="- imprimir_mensaje_error()" style="text;whiteSpace=wrap;html=1;" vertex="1" parent="xGXZ_tOPPtuFmqoxac-9-253">
          <mxGeometry y="300" width="300" height="30" as="geometry" />
        </mxCell>
        <mxCell id="DX40YdvMPcdN43nip_q0-9" value="- imprimir_mensaje_esperar(tiempo: int)" style="text;whiteSpace=wrap;html=1;" vertex="1" parent="xGXZ_tOPPtuFmqoxac-9-253">
          <mxGeometry y="330" width="300" height="30" as="geometry" />
        </mxCell>
        <mxCell id="DX40YdvMPcdN43nip_q0-10" value="- imprimir_mensaje_opcion_afirmativa_negativa()" style="text;whiteSpace=wrap;html=1;" vertex="1" parent="xGXZ_tOPPtuFmqoxac-9-253">
          <mxGeometry y="360" width="300" height="30" as="geometry" />
        </mxCell>
        <mxCell id="DX40YdvMPcdN43nip_q0-12" value="- pedir_opcion()" style="text;whiteSpace=wrap;html=1;" vertex="1" parent="xGXZ_tOPPtuFmqoxac-9-253">
          <mxGeometry y="390" width="300" height="30" as="geometry" />
        </mxCell>
        <mxCell id="DX40YdvMPcdN43nip_q0-11" value="- mostrar_opciones()" style="text;whiteSpace=wrap;html=1;" vertex="1" parent="xGXZ_tOPPtuFmqoxac-9-253">
          <mxGeometry y="420" width="300" height="30" as="geometry" />
        </mxCell>
        <mxCell id="DX40YdvMPcdN43nip_q0-13" value="- validar_opcion_ingresada(&amp;amp;opcion_elegida: int)" style="text;whiteSpace=wrap;html=1;" vertex="1" parent="xGXZ_tOPPtuFmqoxac-9-253">
          <mxGeometry y="450" width="300" height="30" as="geometry" />
        </mxCell>
        <mxCell id="DX40YdvMPcdN43nip_q0-14" value="- validar_opcion_construir(&amp;amp;opcion_elegida: int)" style="text;whiteSpace=wrap;html=1;" vertex="1" parent="xGXZ_tOPPtuFmqoxac-9-253">
          <mxGeometry y="480" width="300" height="30" as="geometry" />
        </mxCell>
        <mxCell id="DX40YdvMPcdN43nip_q0-15" value="- procesar_opcion(opcion: int)" style="text;whiteSpace=wrap;html=1;" vertex="1" parent="xGXZ_tOPPtuFmqoxac-9-253">
          <mxGeometry y="510" width="300" height="30" as="geometry" />
        </mxCell>
        <mxCell id="DX40YdvMPcdN43nip_q0-17" value="- imprimir_mensaje_error_ingreso()" style="text;whiteSpace=wrap;html=1;" vertex="1" parent="xGXZ_tOPPtuFmqoxac-9-253">
          <mxGeometry y="540" width="300" height="30" as="geometry" />
        </mxCell>
        <mxCell id="DX40YdvMPcdN43nip_q0-16" value="- imprimir_mensaje_guardado()" style="text;whiteSpace=wrap;html=1;" vertex="1" parent="xGXZ_tOPPtuFmqoxac-9-253">
          <mxGeometry y="570" width="300" height="30" as="geometry" />
        </mxCell>
        <mxCell id="DX40YdvMPcdN43nip_q0-18" value="- es_ocpcion_valida(opcion: int)" style="text;whiteSpace=wrap;html=1;" vertex="1" parent="xGXZ_tOPPtuFmqoxac-9-253">
          <mxGeometry y="600" width="300" height="30" as="geometry" />
        </mxCell>
        <mxCell id="DX40YdvMPcdN43nip_q0-19" value="- pedir_nombre()" style="text;whiteSpace=wrap;html=1;" vertex="1" parent="xGXZ_tOPPtuFmqoxac-9-253">
          <mxGeometry y="630" width="300" height="30" as="geometry" />
        </mxCell>
        <mxCell id="DX40YdvMPcdN43nip_q0-20" value="- calcular_costos(edificio: Edicficio*)" style="text;whiteSpace=wrap;html=1;" vertex="1" parent="xGXZ_tOPPtuFmqoxac-9-253">
          <mxGeometry y="660" width="300" height="30" as="geometry" />
        </mxCell>
        <mxCell id="DX40YdvMPcdN43nip_q0-21" value="- construir_edificio_nombre()" style="text;whiteSpace=wrap;html=1;" vertex="1" parent="xGXZ_tOPPtuFmqoxac-9-253">
          <mxGeometry y="690" width="300" height="30" as="geometry" />
        </mxCell>
        <mxCell id="DX40YdvMPcdN43nip_q0-22" value="- demoler_edificio_por_coordenada()" style="text;whiteSpace=wrap;html=1;" vertex="1" parent="xGXZ_tOPPtuFmqoxac-9-253">
          <mxGeometry y="720" width="300" height="30" as="geometry" />
        </mxCell>
        <mxCell id="DX40YdvMPcdN43nip_q0-24" value="- procesar_archivo_ubicaciones()" style="text;whiteSpace=wrap;html=1;" vertex="1" parent="xGXZ_tOPPtuFmqoxac-9-253">
          <mxGeometry y="750" width="300" height="30" as="geometry" />
        </mxCell>
        <mxCell id="DX40YdvMPcdN43nip_q0-23" value="- mostrar_coordenada()" style="text;whiteSpace=wrap;html=1;" vertex="1" parent="xGXZ_tOPPtuFmqoxac-9-253">
          <mxGeometry y="780" width="300" height="30" as="geometry" />
        </mxCell>
        <mxCell id="DX40YdvMPcdN43nip_q0-25" value="- pedir_fila()" style="text;whiteSpace=wrap;html=1;" vertex="1" parent="xGXZ_tOPPtuFmqoxac-9-253">
          <mxGeometry y="810" width="300" height="30" as="geometry" />
        </mxCell>
        <mxCell id="DX40YdvMPcdN43nip_q0-27" value="- pedir_columna()" style="text;whiteSpace=wrap;html=1;" vertex="1" parent="xGXZ_tOPPtuFmqoxac-9-253">
          <mxGeometry y="840" width="300" height="30" as="geometry" />
        </mxCell>
        <mxCell id="DX40YdvMPcdN43nip_q0-26" value="- mensaje_enter_continuar()" style="text;whiteSpace=wrap;html=1;" vertex="1" parent="xGXZ_tOPPtuFmqoxac-9-253">
          <mxGeometry y="870" width="300" height="30" as="geometry" />
        </mxCell>
        <mxCell id="DX40YdvMPcdN43nip_q0-28" value="- validar_fila(&amp;amp;fila: int)" style="text;whiteSpace=wrap;html=1;" vertex="1" parent="xGXZ_tOPPtuFmqoxac-9-253">
          <mxGeometry y="900" width="300" height="30" as="geometry" />
        </mxCell>
        <mxCell id="DX40YdvMPcdN43nip_q0-29" value="- validar_columna(&amp;amp;columna int)" style="text;whiteSpace=wrap;html=1;" vertex="1" parent="xGXZ_tOPPtuFmqoxac-9-253">
          <mxGeometry y="930" width="300" height="30" as="geometry" />
        </mxCell>
        <mxCell id="DX40YdvMPcdN43nip_q0-30" value="Materiales" style="swimlane;fontStyle=0;childLayout=stackLayout;horizontal=1;startSize=30;horizontalStack=0;resizeParent=1;resizeParentMax=0;resizeLast=0;collapsible=1;marginBottom=0;" vertex="1" parent="WIyWlLk6GJQsqaUBKTNV-1">
          <mxGeometry x="2360" y="120" width="380" height="480" as="geometry" />
        </mxCell>
        <mxCell id="DX40YdvMPcdN43nip_q0-31" value="- materiales: **Material" style="text;strokeColor=none;fillColor=none;align=left;verticalAlign=middle;spacingLeft=4;spacingRight=4;overflow=hidden;points=[[0,0.5],[1,0.5]];portConstraint=eastwest;rotatable=0;" vertex="1" parent="DX40YdvMPcdN43nip_q0-30">
          <mxGeometry y="30" width="380" height="30" as="geometry" />
        </mxCell>
        <mxCell id="DX40YdvMPcdN43nip_q0-32" value="- total_material: int" style="text;strokeColor=none;fillColor=none;align=left;verticalAlign=middle;spacingLeft=4;spacingRight=4;overflow=hidden;points=[[0,0.5],[1,0.5]];portConstraint=eastwest;rotatable=0;" vertex="1" parent="DX40YdvMPcdN43nip_q0-30">
          <mxGeometry y="60" width="380" height="30" as="geometry" />
        </mxCell>
        <mxCell id="DX40YdvMPcdN43nip_q0-33" value="" style="endArrow=none;html=1;rounded=0;entryX=1.002;entryY=0;entryDx=0;entryDy=0;entryPerimeter=0;exitX=0.015;exitY=0;exitDx=0;exitDy=0;exitPerimeter=0;" edge="1" parent="DX40YdvMPcdN43nip_q0-30" source="DX40YdvMPcdN43nip_q0-34" target="DX40YdvMPcdN43nip_q0-34">
          <mxGeometry width="50" height="50" relative="1" as="geometry">
            <mxPoint y="179" as="sourcePoint" />
            <mxPoint x="120" y="179" as="targetPoint" />
          </mxGeometry>
        </mxCell>
        <mxCell id="DX40YdvMPcdN43nip_q0-34" value="+ Materiales()" style="text;strokeColor=none;fillColor=none;align=left;verticalAlign=middle;spacingLeft=4;spacingRight=4;overflow=hidden;points=[[0,0.5],[1,0.5]];portConstraint=eastwest;rotatable=0;" vertex="1" parent="DX40YdvMPcdN43nip_q0-30">
          <mxGeometry y="90" width="380" height="30" as="geometry" />
        </mxCell>
        <mxCell id="DX40YdvMPcdN43nip_q0-35" value="+ ~Materiales() " style="text;strokeColor=none;fillColor=none;align=left;verticalAlign=middle;spacingLeft=4;spacingRight=4;overflow=hidden;points=[[0,0.5],[1,0.5]];portConstraint=eastwest;rotatable=0;" vertex="1" parent="DX40YdvMPcdN43nip_q0-30">
          <mxGeometry y="120" width="380" height="30" as="geometry" />
        </mxCell>
        <mxCell id="DX40YdvMPcdN43nip_q0-36" value="+ procesar_archivo()" style="text;strokeColor=none;fillColor=none;align=left;verticalAlign=middle;spacingLeft=4;spacingRight=4;overflow=hidden;points=[[0,0.5],[1,0.5]];portConstraint=eastwest;rotatable=0;" vertex="1" parent="DX40YdvMPcdN43nip_q0-30">
          <mxGeometry y="150" width="380" height="30" as="geometry" />
        </mxCell>
        <mxCell id="DX40YdvMPcdN43nip_q0-37" value="+ mostrar()" style="text;strokeColor=none;fillColor=none;align=left;verticalAlign=middle;spacingLeft=4;spacingRight=4;overflow=hidden;points=[[0,0.5],[1,0.5]];portConstraint=eastwest;rotatable=0;" vertex="1" parent="DX40YdvMPcdN43nip_q0-30">
          <mxGeometry y="180" width="380" height="30" as="geometry" />
        </mxCell>
        <mxCell id="DX40YdvMPcdN43nip_q0-38" value="+ devolver_cantidad_material(nombre: string)" style="text;strokeColor=none;fillColor=none;align=left;verticalAlign=middle;spacingLeft=4;spacingRight=4;overflow=hidden;points=[[0,0.5],[1,0.5]];portConstraint=eastwest;rotatable=0;" vertex="1" parent="DX40YdvMPcdN43nip_q0-30">
          <mxGeometry y="210" width="380" height="30" as="geometry" />
        </mxCell>
        <mxCell id="DX40YdvMPcdN43nip_q0-39" value="+ hay_suficioente_material(edificio: *Edificio, material: material)" style="text;strokeColor=none;fillColor=none;align=left;verticalAlign=middle;spacingLeft=4;spacingRight=4;overflow=hidden;points=[[0,0.5],[1,0.5]];portConstraint=eastwest;rotatable=0;" vertex="1" parent="DX40YdvMPcdN43nip_q0-30">
          <mxGeometry y="240" width="380" height="30" as="geometry" />
        </mxCell>
        <mxCell id="DX40YdvMPcdN43nip_q0-40" value="+ sumar_restar_cantidad_material(cantidad: int, nombre, strring)" style="text;strokeColor=none;fillColor=none;align=left;verticalAlign=middle;spacingLeft=4;spacingRight=4;overflow=hidden;points=[[0,0.5],[1,0.5]];portConstraint=eastwest;rotatable=0;" vertex="1" parent="DX40YdvMPcdN43nip_q0-30">
          <mxGeometry y="270" width="380" height="30" as="geometry" />
        </mxCell>
        <mxCell id="DX40YdvMPcdN43nip_q0-41" value="+ recolectar_recursos_producidos(mapa: *Mapa)" style="text;strokeColor=none;fillColor=none;align=left;verticalAlign=middle;spacingLeft=4;spacingRight=4;overflow=hidden;points=[[0,0.5],[1,0.5]];portConstraint=eastwest;rotatable=0;" vertex="1" parent="DX40YdvMPcdN43nip_q0-30">
          <mxGeometry y="300" width="380" height="30" as="geometry" />
        </mxCell>
        <mxCell id="DX40YdvMPcdN43nip_q0-42" value="+ buscar_material(material_buscar: string)" style="text;strokeColor=none;fillColor=none;align=left;verticalAlign=middle;spacingLeft=4;spacingRight=4;overflow=hidden;points=[[0,0.5],[1,0.5]];portConstraint=eastwest;rotatable=0;" vertex="1" parent="DX40YdvMPcdN43nip_q0-30">
          <mxGeometry y="330" width="380" height="30" as="geometry" />
        </mxCell>
        <mxCell id="DX40YdvMPcdN43nip_q0-43" value="+ existe_material_por_nombre(nombre: string)" style="text;strokeColor=none;fillColor=none;align=left;verticalAlign=middle;spacingLeft=4;spacingRight=4;overflow=hidden;points=[[0,0.5],[1,0.5]];portConstraint=eastwest;rotatable=0;" vertex="1" parent="DX40YdvMPcdN43nip_q0-30">
          <mxGeometry y="360" width="380" height="30" as="geometry" />
        </mxCell>
        <mxCell id="DX40YdvMPcdN43nip_q0-44" value="+ cerrar()" style="text;strokeColor=none;fillColor=none;align=left;verticalAlign=middle;spacingLeft=4;spacingRight=4;overflow=hidden;points=[[0,0.5],[1,0.5]];portConstraint=eastwest;rotatable=0;" vertex="1" parent="DX40YdvMPcdN43nip_q0-30">
          <mxGeometry y="390" width="380" height="30" as="geometry" />
        </mxCell>
        <mxCell id="DX40YdvMPcdN43nip_q0-45" value="- agregar_material(material: *Material)" style="text;strokeColor=none;fillColor=none;align=left;verticalAlign=middle;spacingLeft=4;spacingRight=4;overflow=hidden;points=[[0,0.5],[1,0.5]];portConstraint=eastwest;rotatable=0;" vertex="1" parent="DX40YdvMPcdN43nip_q0-30">
          <mxGeometry y="420" width="380" height="30" as="geometry" />
        </mxCell>
        <mxCell id="DX40YdvMPcdN43nip_q0-46" value="- imprimir_mensaje_recolectado_recursos_producidos()" style="text;strokeColor=none;fillColor=none;align=left;verticalAlign=middle;spacingLeft=4;spacingRight=4;overflow=hidden;points=[[0,0.5],[1,0.5]];portConstraint=eastwest;rotatable=0;" vertex="1" parent="DX40YdvMPcdN43nip_q0-30">
          <mxGeometry y="450" width="380" height="30" as="geometry" />
        </mxCell>
      </root>
    </mxGraphModel>
  </diagram>
</mxfile>
